HIERARCHY
ROOT SpineBase
{
  OFFSET 0.000000 0.000000 0.000000
  CHANNELS 6 Xposition Yposition Zposition Zrotation Xrotation Yrotation
  JOINT SpineMid
  {
    OFFSET 0.000000 33.667571 0.000000
    CHANNELS 3 Zrotation Xrotation Yrotation
    JOINT SpineShoulder
    {
      OFFSET 0.113568 24.858057 -0.676911
      CHANNELS 3 Zrotation Xrotation Yrotation
      JOINT Neck
      {
        OFFSET 0.129219 8.171616 -0.567949
        CHANNELS 3 Zrotation Xrotation Yrotation
        JOINT Head
        {
          OFFSET 3.255900 9.835427 5.211254
          CHANNELS 3 Zrotation Xrotation Yrotation
          End Site
          {
            OFFSET 0 0 0
          }
        }
      }
      JOINT ShoulderLeft
      {
        OFFSET -1.378394 -6.222294 -13.547325
        CHANNELS 3 Zrotation Xrotation Yrotation
        JOINT ElbowLeft
        {
          OFFSET 6.304056 -24.956023 -5.863181
          CHANNELS 3 Zrotation Xrotation Yrotation
          JOINT WristLeft
          {
            OFFSET 5.631588 -21.057097 4.907449
            CHANNELS 3 Zrotation Xrotation Yrotation
            JOINT HandLeft
            {
              OFFSET -1.134400 -7.635754 4.612405
              CHANNELS 3 Zrotation Xrotation Yrotation
              JOINT HandTipLeft
              {
                OFFSET 2.068983 -7.547681 1.427198
                CHANNELS 3 Zrotation Xrotation Yrotation
                End Site
                {
                  OFFSET 0 0 0
                }
              }
              JOINT ThumbLeft
              {
                OFFSET -4.406460 -1.224811 -3.179818
                CHANNELS 3 Zrotation Xrotation Yrotation
                End Site
                {
                  OFFSET 0 0 0
                }
              }
            }
          }
        }
      }
      JOINT ShoulderRight
      {
        OFFSET -0.558637 0.273376 -14.561967
        CHANNELS 3 Zrotation Xrotation Yrotation
        JOINT ElbowRight
        {
          OFFSET 4.500679 -25.654608 -0.645700
          CHANNELS 3 Zrotation Xrotation Yrotation
          JOINT WristRight
          {
            OFFSET 3.255080 -25.078602 3.964682
            CHANNELS 3 Zrotation Xrotation Yrotation
            JOINT HandRight
            {
              OFFSET 0.248390 -27.069828 6.283924
              CHANNELS 3 Zrotation Xrotation Yrotation
              JOINT HandTipRight
              {
                OFFSET 0.066584 -5.292567 0.338210
                CHANNELS 3 Zrotation Xrotation Yrotation
                End Site
                {
                  OFFSET 0 0 0
                }
              }
              JOINT ThumbRight
              {
                OFFSET -1.866998 0.304886 -4.480785
                CHANNELS 3 Zrotation Xrotation Yrotation
                End Site
                {
                  OFFSET 0 0 0
                }
              }
            }
          }
        }
      }
    }
  }
  JOINT HipLeft
  {
    OFFSET -1.431913 0.530625 -9.346536
    CHANNELS 3 Zrotation Xrotation Yrotation
    JOINT KneeLeft
    {
      OFFSET -0.941266 -36.375067 7.398883
      CHANNELS 3 Zrotation Xrotation Yrotation
      JOINT AnkleLeft
      {
        OFFSET -12.467313 -32.673327 2.917601
        CHANNELS 3 Zrotation Xrotation Yrotation
        JOINT FootLeft
        {
          OFFSET -2.418156 -6.097446 -3.328917
          CHANNELS 3 Zrotation Xrotation Yrotation
          End Site
          {
            OFFSET 0 0 0
          }
        }
      }
    }
  }
  JOINT HipRight
  {
    OFFSET 1.780340 0.868701 1.740785
    CHANNELS 3 Zrotation Xrotation Yrotation
    JOINT KneeRight
    {
      OFFSET -12.641721 -36.542206 8.595246
      CHANNELS 3 Zrotation Xrotation Yrotation
      JOINT AnkleRight
      {
        OFFSET 14.105273 -36.391355 0.979302
        CHANNELS 3 Zrotation Xrotation Yrotation
        JOINT FootRight
        {
          OFFSET -12.838004 -0.813730 -5.325938
          CHANNELS 3 Zrotation Xrotation Yrotation
          End Site
          {
            OFFSET 0 0 0
          }
        }
      }
    }
  }
}
MOTION
Frames: 5
Frame Time: 0.033333
-12.985620 73.698232 322.022015 -2.697567 0.996054 -37.628910 -0.002213 -0.074051 37.571558 0.469424 0.121174 -0.089652 -2.306553 0.879229 1.932746 0.000000 0.000000 0.000000 1.337022 -0.587453 0.521756 -0.960509 0.887796 -0.412103 -2.853560 -8.723460 -2.002398 5.456490 17.351910 4.143097 0.000000 0.000000 0.000000 0.000000 0.000000 0.000000 -11.978943 -3.070574 -0.315983 10.066198 -2.490549 -1.515099 -14.369078 -6.775868 -3.664869 -14.780012 3.650387 4.854084 0.000000 0.000000 0.000000 0.000000 0.000000 0.000000 1.084136 2.192382 37.520324 5.927028 -4.922748 2.104453 40.556272 -38.380045 6.273174 0.000000 0.000000 0.000000 11.505881 8.688733 39.429523 -51.377651 -18.870544 -20.875544 77.341316 -24.112690 -58.897090 0.000000 0.000000 0.000000
-12.637952 73.611649 322.564567 -3.425656 1.721591 -37.870536 -0.025648 -0.073364 37.816985 0.480054 0.131165 -0.124801 -1.608311 0.607379 1.841724 0.000000 0.000000 0.000000 0.842838 -0.941309 0.964447 -0.409921 1.456741 -0.687114 -0.644198 -8.924140 -1.205603 3.084364 17.289589 3.744418 0.000000 0.000000 0.000000 0.000000 0.000000 0.000000 -11.602094 -3.736323 -0.397425 10.380759 -2.629826 -1.555869 -12.700309 -5.749396 -3.076937 -17.991109 3.429232 4.534077 0.000000 0.000000 0.000000 0.000000 0.000000 0.000000 1.658905 1.920854 37.697907 6.343580 -4.712645 2.065470 33.948647 -30.975445 -0.268637 0.000000 0.000000 0.000000 12.560894 7.339983 40.002840 -50.136029 -18.420552 -20.509703 86.820315 -31.120537 -51.459732 0.000000 0.000000 0.000000
-12.108330 73.480467 323.149012 -4.130663 2.466112 -38.161982 0.023424 -0.208337 38.116159 0.572958 0.106062 -0.152229 -2.916105 1.441776 2.448124 0.000000 0.000000 0.000000 -0.044776 -1.117692 1.458461 0.559972 1.843978 -1.050529 -0.054604 -9.732238 -1.292431 2.379610 18.063851 3.995004 0.000000 0.000000 0.000000 0.000000 0.000000 0.000000 -11.303155 -3.965087 -0.364179 10.770638 -3.152228 -1.633206 -9.178923 -7.046373 -2.347514 -18.739676 0.469290 3.164227 0.000000 0.000000 0.000000 0.000000 0.000000 0.000000 2.024655 1.326793 37.862746 7.020787 -4.050145 1.932735 34.585133 -31.999098 1.141760 0.000000 0.000000 0.000000 13.666525 7.005848 40.448496 -50.516875 -18.253854 -20.608953 87.674616 -32.086482 -51.929226 0.000000 0.000000 0.000000
-11.689980 73.303659 323.888881 -5.024555 2.987576 -37.562318 0.067538 -0.158227 37.534104 0.460044 0.160090 -0.199065 -4.326793 1.725888 3.411769 0.000000 0.000000 0.000000 -0.808658 -1.398575 1.971050 1.965336 2.189621 -1.385456 0.003079 -10.407781 -1.590688 1.725860 18.537774 4.316647 0.000000 0.000000 0.000000 0.000000 0.000000 0.000000 -7.366745 -5.888838 -0.657457 7.593502 -1.501543 -1.303654 -3.128886 -12.414303 -1.301793 -32.600217 24.769077 13.346600 0.000000 0.000000 0.000000 0.000000 0.000000 0.000000 2.598439 1.453053 37.227913 7.282040 -3.744168 1.782552 38.105361 -37.602421 7.441782 0.000000 0.000000 0.000000 13.934974 6.914261 39.602869 -49.645070 -19.255655 -21.018394 81.403558 -27.964495 -57.040857 0.000000 0.000000 0.000000
-11.445054 73.098009 324.681913 -6.217770 3.429196 -36.177231 -0.193132 -0.122546 36.165872 0.295876 0.169601 -0.275949 -3.553358 0.805182 3.942523 0.000000 0.000000 0.000000 -1.244791 -1.607888 2.621341 3.734623 2.288140 -1.809596 -0.451506 -11.482441 -2.128394 2.180850 19.109720 4.629418 0.000000 0.000000 0.000000 0.000000 0.000000 0.000000 -6.498700 -6.120386 -0.523378 8.310772 -1.999159 -1.404427 0.459705 -14.912501 -0.338940 -4.845862 30.690690 3.815060 0.000000 0.000000 0.000000 0.000000 0.000000 0.000000 3.682107 2.134755 35.914832 7.042634 -3.726239 1.605266 36.600166 -35.251352 5.186468 0.000000 0.000000 0.000000 13.388126 7.425087 37.474354 -47.599424 -22.089003 -22.082546 83.675093 -27.470599 -52.400379 0.000000 0.000000 0.000000
